<?xml version="1.0" encoding="UTF-8"?>
<svg width="89px" height="89px" viewBox="0 0 89 89" version="1.1" xmlns="http://www.w3.org/2000/svg" xmlns:xlink="http://www.w3.org/1999/xlink">
    <!-- Generator: Sketch 55.2 (78181) - https://sketchapp.com -->
    <title>Pockits Logo</title>
    <desc>Created with Sketch.</desc>
    <g id="Landing-Page" stroke="none" stroke-width="1" fill="none" fill-rule="evenodd">
        <g id="Artboard" transform="translate(-111.000000, -14.000000)">
            <g id="Pockits-Logo" transform="translate(111.000000, 14.000000)">
                <g id="pockits-main" transform="translate(0.000000, 0.000000)">
                    <path d="M85.2460724,23.1254098 L48.1931352,26.0434426 C46.1911428,26.1463165 44.374736,24.923583 43.7932889,23.0816393 L34.1425034,1.63409836 L85.2460724,23.1254098 Z" id="Path" fill="#FFFFFF" fill-rule="nonzero"></path>
                    <path d="M47.9575649,26.3133607 C45.9152201,26.3181186 44.1127678,25.0329671 43.5273224,23.1545902 L33.6105704,1.12344262 L86.3631318,23.3442623 L48.2159324,26.342541 L47.9575649,26.3133607 Z M34.6820355,2.18852459 L44.0744536,22.9722131 C44.6102539,24.7124288 46.3208444,25.8716054 48.2083333,25.7735246 L84.1594092,22.9503279 L34.6820355,2.18852459 Z" id="Shape" fill="#2AAAE2" fill-rule="nonzero"></path>
                    <path d="M1.51980874,5.83606557 C1.51980874,3.28278689 3.93630464,1.45901639 6.59596995,1.45901639 L30.2669911,1.45901639 C33.124082,1.542579 35.698223,3.13761038 36.9541496,5.60262295 L43.8768784,21.542377 C45.0880926,24.0023794 47.7171306,25.5259039 50.5488388,25.4087705 L81.9024932,22.9065574 C83.1358375,22.7905767 84.3614857,23.1900157 85.266379,24.0028485 C86.1712723,24.8156812 86.6677857,25.9631974 86.6290984,27.1522951 L86.6290984,61.4756557 C86.5014858,64.2743242 84.9394176,66.8309946 82.4572234,68.3038525 L46.0806011,87.0011475 C43.4145845,88.1897197 40.3237164,88.1168877 37.721653,86.8041803 L5.77527322,68.5008197 C3.30041372,66.9177924 1.728951,64.323532 1.51980874,61.4756557 L1.51980874,5.83606557 Z" id="Path" fill="#FFFFFF" fill-rule="nonzero"></path>
                    <path d="M42.1974898,88.9489344 C40.4370845,88.9798125 38.6993076,88.5646332 37.1593238,87.7452459 L5.40292008,69.4345902 C2.62388976,67.6422868 0.899779079,64.686862 0.759904372,61.4756557 L0.759904372,5.83606557 C0.725293211,4.31855667 1.32126426,2.85022521 2.41623832,1.75525114 C3.51121239,0.660277075 5.01513557,0.0287143044 6.59596995,0 L30.2669911,0 C33.6142524,0.145908611 36.5963753,2.07417217 37.9952186,4.99713115 L44.9255464,21.0463115 C45.9342663,23.0803082 48.0966725,24.3527324 50.4424522,24.292623 L81.9860827,21.8122951 C83.5839701,21.6820289 85.1664573,22.1945896 86.3555328,23.227541 C87.5013843,24.2411314 88.1496197,25.6711111 88.141387,27.1668852 L88.141387,61.4756557 C87.941451,64.7113776 86.0862499,67.6423677 83.1867316,69.3032787 L46.7113217,88.0005738 C45.3088014,88.662641 43.7598671,88.9880736 42.1974898,88.9489344 Z M6.59596995,2.18852459 C5.62033941,2.21897443 4.69733606,2.62050444 4.03027883,3.30466571 C3.3632216,3.98882697 3.00683273,4.8994941 3.03961749,5.83606557 L3.03961749,61.497541 C3.1824912,63.938682 4.48516527,66.1816347 6.57317281,67.5816393 L38.3371755,85.8922951 C40.6202826,87.0033685 43.3039958,87.0650296 45.6398566,86.060082 L82.1152664,67.3554918 C84.2799946,66.1043251 85.6918726,63.9356805 85.9147883,61.5194262 L85.9147883,27.232541 C85.9424159,26.3057136 85.5385191,25.4152466 84.8129269,24.8032787 C84.097409,24.1821585 83.1445725,23.8754884 82.1836578,23.9570492 L50.6400273,26.437377 C47.3128613,26.5908949 44.2218432,24.7896853 42.8282104,21.8852459 L35.8978825,5.83606557 C34.8467332,3.73162838 32.6932048,2.33663024 30.2669911,2.18852459 L6.59596995,2.18852459 Z" id="Shape" fill="#114B89" fill-rule="nonzero"></path>
                    <path d="M35.4951332,59.8196721 L35.4951332,56.5077049 L37.364498,56.0043443 L37.364498,38.9046721 L35.0239925,38.9046721 L35.0239925,35.3811475 L41.0348361,35.3811475 L41.0348361,37.204918 C42.0406316,35.7484326 43.7770471,34.9149532 45.5942623,35.0163934 C50.1536885,35.0163934 52.5093921,38.182459 52.5093921,43.7121311 C52.5093921,49.125082 50.2752732,52.3640984 45.5942623,52.3640984 C43.9894882,52.4496636 42.4333224,51.819795 41.376793,50.6570492 L41.376793,56.2888525 L44.8343579,56.2888525 L44.8343579,59.8196721 L35.4951332,59.8196721 Z M44.5759904,38.8390164 C43.3470983,38.819957 42.1726448,39.3249164 41.369194,40.2177869 L41.369194,47.345082 C42.2199565,48.1529765 43.3800352,48.5884183 44.5759904,48.5487705 C47.4940232,48.5487705 48.2843238,46.5061475 48.2843238,43.7121311 C48.2843238,40.9181148 47.5320184,38.8390164 44.5759904,38.8390164 Z" id="Shape" stroke="#114B89" stroke-width="5" fill="#114B89" fill-rule="nonzero"></path>
                    <path d="M35.0315915,60.5491803 L35.0315915,57.0621311 L37.0909324,56.5295902 L37.0909324,38.7004098 L34.5224556,38.7004098 L34.5224556,35.0163934 L41.1184255,35.0163934 L41.1184255,36.9568852 C42.2441223,35.4049341 44.1292447,34.5263232 46.0957992,34.6370492 C51.0807719,34.6370492 53.6948429,37.9417213 53.6948429,43.7048361 C53.6948429,49.3585246 51.2403518,52.7361475 46.0957992,52.7361475 C44.3543897,52.8360782 42.6582883,52.1799548 41.4755806,50.9488525 L41.4755806,56.8286885 L45.2751025,56.8286885 L45.2751025,60.4762295 L35.0315915,60.5491803 Z M44.9939378,38.6639344 C43.6572188,38.6421839 42.3754006,39.173737 41.4755806,40.1229508 L41.4755806,47.4982787 C42.4280437,48.3488111 43.6940509,48.8003081 44.9939378,48.7530328 C48.1931352,48.7530328 49.0594262,46.6301639 49.0594262,43.7048361 C49.0594262,40.7795082 48.2311305,38.6201639 44.9939378,38.6201639 L44.9939378,38.6639344 Z" id="Shape" fill="#FFFFFF" fill-rule="nonzero"></path>
                    <path d="M42.2962773,80.6252459 C41.9400241,80.6301446 41.6280589,80.3967703 41.5459461,80.0639396 C41.4638332,79.731109 41.633623,79.3881989 41.9543204,79.2391803 L44.9407445,77.8239344 C45.18644,77.68564 45.4920623,77.6908505 45.7324877,77.8374328 C45.9729132,77.984015 46.1077711,78.2473557 46.0818498,78.5196417 C46.0559286,78.7919276 45.8735806,79.0274383 45.6094604,79.1297541 L42.6306352,80.545 C42.5270555,80.5959791 42.412661,80.6234338 42.2962773,80.6252459 Z M37.4404884,79.3194442 C37.3073711,79.3203088 37.1763478,79.2876054 37.0605362,79.2245902 L34.1956967,77.6269672 C33.8338786,77.4266381 33.7083029,76.9835258 33.9145321,76.6348361 C34.0148024,76.4659989 34.1811058,76.3425516 34.3765512,76.2918785 C34.5719966,76.2412053 34.7804251,76.2674959 34.9556011,76.364918 L37.8432377,77.9552459 C38.1443214,78.1190337 38.2921042,78.4574255 38.202714,78.778372 C38.1133238,79.0993185 37.8093406,79.3217489 37.4632855,79.3194442 L37.4404884,79.3194442 Z M50.2524761,76.8463996 C49.9022819,76.8444011 49.5988534,76.6129171 49.5177398,76.2858671 C49.4366262,75.9588172 49.5988347,75.6209018 49.9105191,75.467623 L52.8969433,74.052377 C53.2700322,73.8878619 53.711778,74.0375875 53.894566,74.390512 C54.0773539,74.7434365 53.9350793,75.1719258 53.5732582,75.3581967 L50.586834,76.7734426 C50.4826263,76.8218963 50.3682626,76.8468484 50.2524761,76.8463996 Z M29.7350581,75.0737065 C29.6019408,75.0745711 29.4709175,75.0418677 29.3551059,74.9788525 L26.4750683,73.3885246 C26.1099436,73.1870765 25.9840619,72.7396181 26.1939037,72.3890984 C26.4037455,72.0385787 26.869848,71.9177322 27.2349727,72.1191803 L30.1226093,73.7095082 C30.423693,73.873296 30.5714758,74.2116878 30.4820856,74.5326343 C30.3926954,74.8535808 30.0887122,75.0760112 29.7426571,75.0737065 L29.7350581,75.0737065 Z M58.2010758,73.0748361 C57.8508816,73.0728437 57.5474531,72.8413597 57.4663395,72.5143098 C57.3852259,72.1872598 57.5474344,71.8493445 57.8591189,71.6960656 L60.845543,70.2808197 C61.0885245,70.1596276 61.3803979,70.1720853 61.6112172,70.3135003 C61.8420365,70.4549152 61.9767349,70.7038031 61.9645727,70.9664101 C61.9524106,71.2290172 61.7952356,71.4654473 61.5522541,71.5866393 L58.5126366,73.0018852 C58.4176947,73.0462081 58.3141741,73.0710531 58.2086749,73.0748361 L58.2010758,73.0748361 Z M22.0372268,70.8352459 C21.9034181,70.8339118 21.772349,70.7986805 21.6572746,70.7331148 L18.769638,69.1427869 C18.5223055,69.0185787 18.3658153,68.7741946 18.3620375,68.5062546 C18.3582597,68.2383145 18.5078026,67.9899538 18.7515425,67.8593647 C18.9952825,67.7287755 19.2939803,67.7369813 19.5295423,67.8807377 L22.4095799,69.4710656 C22.7713981,69.6713947 22.8969737,70.114507 22.6907445,70.4631967 C22.5577574,70.6903629 22.3086487,70.8321811 22.0372268,70.8352459 Z M66.1648736,69.3032848 C65.8146795,69.3012863 65.5112509,69.0698023 65.4301373,68.7427524 C65.3490237,68.4157024 65.5112322,68.0777871 65.8229167,67.9245082 L68.8093408,66.5092623 C69.1849724,66.33018 69.6407119,66.4771049 69.8276127,66.837541 C69.9270517,67.0135679 69.9467461,67.2210961 69.8820791,67.4114757 C69.8174122,67.6018553 69.67407,67.758346 69.4856557,67.8442623 L66.4992316,69.2303279 C66.3950238,69.2787816 66.2806601,69.3037336 66.1648736,69.3032848 Z M14.3545936,66.5895082 C14.2214763,66.5903908 14.090453,66.5576874 13.9746414,66.4946721 L11.0946038,64.9262295 C10.7509351,64.7164988 10.640576,64.2839728 10.8443725,63.9455077 C11.0481689,63.6070425 11.4936673,63.4829692 11.8545082,63.6641803 L14.7421448,65.2545082 C15.0432285,65.418296 15.1910113,65.7566878 15.1016211,66.0776343 C15.0122309,66.3985808 14.7082477,66.6210112 14.3621926,66.6187065 L14.3545936,66.5895082 Z M74.1210724,65.5317213 C73.8304887,65.5322796 73.565015,65.3737033 73.4371585,65.1231967 C73.2506144,64.7625904 73.4036612,64.3250805 73.7791154,64.1456557 L76.7503415,62.7377049 C77.1259731,62.5586226 77.5817126,62.7055476 77.7686134,63.0659836 C77.9551575,63.4265899 77.8021106,63.8640998 77.4266564,64.0435246 L74.4706284,65.4587705 C74.3618168,65.5094443 74.2419779,65.5344542 74.1210724,65.5317213 Z M8.35894809,61.4027049 C7.93926449,61.4027049 7.59904372,61.076093 7.59904372,60.6731967 L7.59904372,57.4779508 C7.59904372,57.0750546 7.93926449,56.7484426 8.35894809,56.7484426 C8.77863168,56.7484426 9.11885246,57.0750546 9.11885246,57.4779508 L9.11885246,60.6731967 C9.11885246,61.076093 8.77863168,61.4027049 8.35894809,61.4027049 Z M80.5498634,60.8482788 C80.1301798,60.8482788 79.789959,60.5216667 79.789959,60.1187705 L79.789959,56.9016393 C79.789959,56.4987431 80.1301798,56.1721311 80.5498634,56.1721311 C80.969547,56.1721311 81.3097678,56.4987431 81.3097678,56.9016393 L81.3097678,60.0968852 C81.3159343,60.2941263 81.2386039,60.4853521 81.0954203,60.626932 C80.9522368,60.7685119 80.7554153,60.8483675 80.5498634,60.8482788 Z M8.35894809,52.8820492 C7.93926449,52.8820492 7.59904372,52.5554372 7.59904372,52.152541 L7.59904372,48.9572951 C7.59904372,48.5543988 7.93926449,48.2277869 8.35894809,48.2277869 C8.77863168,48.2277869 9.11885246,48.5543988 9.11885246,48.9572951 L9.11885246,52.152541 C9.11885246,52.5554372 8.77863168,52.8820492 8.35894809,52.8820492 Z M80.5498634,52.327623 C80.1301798,52.327623 79.789959,52.001011 79.789959,51.5981148 L79.789959,48.4101639 C79.789959,48.0072677 80.1301798,47.6806557 80.5498634,47.6806557 C80.969547,47.6806557 81.3097678,48.0072677 81.3097678,48.4101639 L81.3097678,51.5981148 C81.3097678,52.001011 80.969547,52.327623 80.5498634,52.327623 L80.5498634,52.327623 Z M8.35894809,44.3613934 C7.93926449,44.3613934 7.59904372,44.0347815 7.59904372,43.6318852 L7.59904372,40.4366393 C7.59904372,40.0337431 7.93926449,39.7071311 8.35894809,39.7071311 C8.77863168,39.7071311 9.11885246,40.0337431 9.11885246,40.4366393 L9.11885246,43.6318852 C9.11885246,44.0347815 8.77863168,44.3613934 8.35894809,44.3613934 Z M80.5498634,43.8142623 C80.1301798,43.8142623 79.789959,43.4876504 79.789959,43.0847541 L79.789959,39.8895082 C79.789959,39.4866119 80.1301798,39.16 80.5498634,39.16 C80.969547,39.16 81.3097678,39.4866119 81.3097678,39.8895082 L81.3097678,43.0847541 C81.3097678,43.4876504 80.969547,43.8142623 80.5498634,43.8142623 Z M8.35894809,35.8480328 C7.93926449,35.8480328 7.59904372,35.5214208 7.59904372,35.1185246 L7.59904372,31.9232787 C7.59904372,31.5203824 7.93926449,31.1937705 8.35894809,31.1937705 C8.77863168,31.1937705 9.11885246,31.5203824 9.11885246,31.9232787 L9.11885246,35.1185246 C9.11885246,35.5214208 8.77863168,35.8480328 8.35894809,35.8480328 Z M80.5498634,35.2936066 C80.1301798,35.2936066 79.789959,34.9669946 79.789959,34.5640984 L79.789959,31.3688525 C79.789959,30.9659562 80.1301798,30.6393443 80.5498634,30.6393443 C80.969547,30.6393443 81.3097678,30.9659562 81.3097678,31.3688525 L81.3097678,34.5640984 C81.3097678,34.9669946 80.969547,35.2936066 80.5498634,35.2936066 Z M8.35894809,27.327377 C7.93926449,27.327377 7.59904372,27.0007651 7.59904372,26.5978689 L7.59904372,23.402623 C7.59904372,22.9997267 7.93926449,22.6731148 8.35894809,22.6731148 C8.77863168,22.6731148 9.11885246,22.9997267 9.11885246,23.402623 L9.11885246,26.5978689 C9.11885246,27.0007651 8.77863168,27.327377 8.35894809,27.327377 Z M8.35894809,18.8067213 C7.93926449,18.8067213 7.59904372,18.4801094 7.59904372,18.0772131 L7.59904372,14.8819672 C7.59904372,14.479071 7.93926449,14.152459 8.35894809,14.152459 C8.77863168,14.152459 9.11885246,14.479071 9.11885246,14.8819672 L9.11885246,18.0772131 C9.11885246,18.2706907 9.03879134,18.456244 8.89628162,18.5930533 C8.75377191,18.7298626 8.56048726,18.8067213 8.35894809,18.8067213 Z M8.35894809,10.2860656 C7.93926449,10.2860656 7.59904372,9.95945363 7.59904372,9.55655738 L7.59904372,6.56557377 C7.59904372,6.16267752 7.93926449,5.83606557 8.35894809,5.83606557 C8.77863168,5.83606557 9.11885246,6.16267752 9.11885246,6.56557377 L9.11885246,9.55655738 C9.11885246,9.95945363 8.77863168,10.2860656 8.35894809,10.2860656 Z" id="Shape" fill="#114B89" fill-rule="nonzero"></path>
                    <polygon id="Rectangle" fill="#114B89" fill-rule="nonzero" transform="translate(59.046282, 12.157924) rotate(-66.890000) translate(-59.046282, -12.157924) " points="58.107228 -15.5931562 59.1791467 -15.5771355 59.9853364 39.9090033 58.9134177 39.8929826"></polygon>
                </g>
            </g>
        </g>
    </g>
</svg>