<svg fill="#EC5D57" xmlns="http://www.w3.org/2000/svg" xmlns:xlink="http://www.w3.org/1999/xlink" version="1.1" x="0px" y="0px" viewBox="0 0 100 100" style="enable-background:new 0 0 100 100;" xml:space="preserve"><path d="M77.9,64.3L56.5,28.1c-1.4-2.3-3.8-3.7-6.5-3.7s-5.1,1.4-6.5,3.7L22.1,64.3c-1.4,2.3-1.4,5.2-0.1,7.5  c1.4,2.4,3.8,3.8,6.5,3.8h42.9c2.7,0,5.2-1.4,6.5-3.8C79.3,69.5,79.3,66.6,77.9,64.3z M53,64.8c0,1.7-1.3,3-3,3s-3-1.3-3-3v-1  c0-1.7,1.3-3,3-3s3,1.3,3,3V64.8z M53,56.3c0,1.7-1.3,3-3,3s-3-1.3-3-3v-16c0-1.7,1.3-3,3-3s3,1.3,3,3V56.3z"></path></svg>